<svg width="20" height="22" viewBox="0 0 20 22" fill="none" xmlns="http://www.w3.org/2000/svg">
<path d="M16 15L20 11L16 7V10H10.94C10.6 6.9 8.68 4.28 6 2.95C5.96 1.31 4.64 0 3 0C1.34 0 0 1.34 0 3C0 4.66 1.34 6 3 6C3.95 6 4.78 5.55 5.33 4.86C7.23 5.9 8.6 7.77 8.92 10H5.82C5.4 8.84 4.3 8 3 8C1.34 8 0 9.34 0 11C0 12.66 1.34 14 3 14C4.3 14 5.4 13.16 5.82 12H8.92C8.6 14.23 7.23 16.1 5.34 17.14C4.78 16.45 3.95 16 3 16C1.34 16 0 17.34 0 19C0 20.66 1.34 22 3 22C4.64 22 5.96 20.69 5.99 19.05C8.67 17.72 10.59 15.1 10.93 12H16V15Z" fill="#67A5EB"/>
</svg>
