<svg width="56" height="20" viewBox="0 0 56 20" fill="none" xmlns="http://www.w3.org/2000/svg">
<rect width="56" height="20" rx="6" fill="#67A5EB" fill-opacity="0.12"/>
<path d="M7.65128 14H6.24503L8.8054 6.72727H10.4318L12.9957 14H11.5895L9.64702 8.21875H9.5902L7.65128 14ZM7.69744 11.1484H11.5327V12.2067H7.69744V11.1484ZM13.9537 14V6.72727H16.7377C17.2633 6.72727 17.7001 6.81013 18.0481 6.97585C18.3985 7.1392 18.6601 7.36293 18.8329 7.64702C19.0081 7.93111 19.0957 8.25308 19.0957 8.61293C19.0957 8.90885 19.0389 9.16217 18.9252 9.37287C18.8116 9.5812 18.6589 9.75047 18.4672 9.88068C18.2754 10.0109 18.0611 10.1044 17.8244 10.1612V10.2322C18.0824 10.2464 18.3298 10.3258 18.5666 10.4702C18.8057 10.6122 19.001 10.8134 19.1525 11.0739C19.304 11.3343 19.3798 11.6491 19.3798 12.0185C19.3798 12.3949 19.2886 12.7334 19.1064 13.0341C18.9241 13.3324 18.6494 13.5679 18.2825 13.7408C17.9155 13.9136 17.4539 14 16.8975 14H13.9537ZM15.2711 12.8991H16.688C17.1663 12.8991 17.5107 12.808 17.7214 12.6257C17.9345 12.4411 18.041 12.2043 18.041 11.9155C18.041 11.7 17.9877 11.5059 17.8812 11.3331C17.7747 11.1579 17.6232 11.0206 17.4267 10.9212C17.2302 10.8194 16.9958 10.7685 16.7235 10.7685H15.2711V12.8991ZM15.2711 9.82031H16.5744C16.8017 9.82031 17.0065 9.77888 17.1887 9.69602C17.371 9.6108 17.5143 9.49124 17.6184 9.33736C17.725 9.18111 17.7782 8.99645 17.7782 8.78338C17.7782 8.50166 17.6788 8.26965 17.4799 8.08736C17.2834 7.90507 16.9911 7.81392 16.6028 7.81392H15.2711V9.82031ZM20.2063 7.83168V6.72727H26.0089V7.83168H23.761V14H22.4542V7.83168H20.2063ZM33.3038 10.3636C33.3038 11.1473 33.157 11.8184 32.8635 12.3771C32.5723 12.9335 32.1745 13.3596 31.6703 13.6555C31.1684 13.9515 30.599 14.0994 29.9622 14.0994C29.3253 14.0994 28.7548 13.9515 28.2505 13.6555C27.7486 13.3572 27.3509 12.9299 27.0574 12.3736C26.7662 11.8149 26.6206 11.1449 26.6206 10.3636C26.6206 9.58002 26.7662 8.91004 27.0574 8.35369C27.3509 7.79498 27.7486 7.36766 28.2505 7.07173C28.7548 6.7758 29.3253 6.62784 29.9622 6.62784C30.599 6.62784 31.1684 6.7758 31.6703 7.07173C32.1745 7.36766 32.5723 7.79498 32.8635 8.35369C33.157 8.91004 33.3038 9.58002 33.3038 10.3636ZM31.9792 10.3636C31.9792 9.81203 31.8928 9.34683 31.72 8.96804C31.5495 8.58688 31.3128 8.29924 31.0098 8.10511C30.7067 7.90862 30.3575 7.81037 29.9622 7.81037C29.5668 7.81037 29.2176 7.90862 28.9146 8.10511C28.6116 8.29924 28.3736 8.58688 28.2008 8.96804C28.0304 9.34683 27.9451 9.81203 27.9451 10.3636C27.9451 10.9152 28.0304 11.3816 28.2008 11.7628C28.3736 12.1416 28.6116 12.4292 28.9146 12.6257C29.2176 12.8198 29.5668 12.9169 29.9622 12.9169C30.3575 12.9169 30.7067 12.8198 31.0098 12.6257C31.3128 12.4292 31.5495 12.1416 31.72 11.7628C31.8928 11.3816 31.9792 10.9152 31.9792 10.3636Z" fill="#67A5EB"/>
<g clip-path="url(#clip0_1_709)">
<path d="M46.5 5.5H40.5C39.945 5.5 39.5 5.95 39.5 6.5V13.5C39.5 14.05 39.945 14.5 40.5 14.5H47.5C48.05 14.5 48.5 14.05 48.5 13.5V7.5L46.5 5.5ZM44 13.5C43.17 13.5 42.5 12.83 42.5 12C42.5 11.17 43.17 10.5 44 10.5C44.83 10.5 45.5 11.17 45.5 12C45.5 12.83 44.83 13.5 44 13.5ZM45.5 8.5H40.5V6.5H45.5V8.5Z" fill="#67A5EB"/>
</g>
<defs>
<clipPath id="clip0_1_709">
<rect width="12" height="12" fill="white" transform="translate(38 4)"/>
</clipPath>
</defs>
</svg>
