<svg width="22" height="22" viewBox="0 0 22 22" fill="none" xmlns="http://www.w3.org/2000/svg">
<path d="M19.7617 0.593333L0.593333 19.7617C0.698333 20.1583 0.908333 20.52 1.18833 20.8117C1.48 21.0917 1.84167 21.3017 2.23833 21.4067L21.4183 2.23833C21.1967 1.43333 20.5667 0.803333 19.7617 0.593333ZM10.86 0.5L0.5 10.86V14.1617L14.1617 0.5H10.86ZM2.83333 0.5C1.55 0.5 0.5 1.55 0.5 2.83333V5.16667L5.16667 0.5H2.83333ZM19.1667 21.5C19.8083 21.5 20.3917 21.2433 20.8117 20.8117C21.2433 20.3917 21.5 19.8083 21.5 19.1667V16.8333L16.8333 21.5H19.1667ZM7.83833 21.5H11.14L21.5 11.14V7.83833L7.83833 21.5Z" fill="#67A5EB"/>
</svg>
