<svg width="84" height="84" viewBox="0 0 84 84" fill="none" xmlns="http://www.w3.org/2000/svg">
<g clip-path="url(#clip0_1_278)">
<path d="M21 66.5C21 70.35 24.15 73.5 28 73.5H56C59.85 73.5 63 70.35 63 66.5V31.5C63 27.65 59.85 24.5 56 24.5H28C24.15 24.5 21 27.65 21 31.5V66.5ZM32.095 39.095C33.46 37.73 35.665 37.73 37.03 39.095L42 44.065L46.97 39.095C48.335 37.73 50.54 37.73 51.905 39.095C53.27 40.46 53.27 42.665 51.905 44.03L46.935 49L51.905 53.97C53.27 55.335 53.27 57.54 51.905 58.905C50.54 60.27 48.335 60.27 46.97 58.905L42 53.935L37.03 58.905C35.665 60.27 33.46 60.27 32.095 58.905C30.73 57.54 30.73 55.335 32.095 53.97L37.065 49L32.095 44.03C30.73 42.7 30.73 40.46 32.095 39.095ZM54.25 14L51.765 11.515C51.135 10.885 50.225 10.5 49.315 10.5H34.685C33.775 10.5 32.865 10.885 32.235 11.515L29.75 14H21C19.075 14 17.5 15.575 17.5 17.5C17.5 19.425 19.075 21 21 21H63C64.925 21 66.5 19.425 66.5 17.5C66.5 15.575 64.925 14 63 14H54.25Z" fill="#67A5EB"/>
</g>
<defs>
<clipPath id="clip0_1_278">
<rect width="84" height="84" fill="white"/>
</clipPath>
</defs>
</svg>
