<svg width="28" height="28" viewBox="0 0 28 28" fill="none" xmlns="http://www.w3.org/2000/svg">
<g clip-path="url(#clip0_1_384)">
<path d="M12.2502 5.25002C12.5768 5.25002 12.8335 5.50669 12.8335 5.83335V8.16669H19.8335V15.1667H22.1668C22.4935 15.1667 22.7502 15.4234 22.7502 15.75C22.7502 16.0767 22.4935 16.3334 22.1668 16.3334H19.8335V23.3334H17.3602C16.5668 21.2917 14.5718 19.8334 12.2502 19.8334C9.9285 19.8334 7.9335 21.2917 7.14016 23.3334H4.66683V20.86C6.7085 20.0667 8.16683 18.0717 8.16683 15.75C8.16683 13.4284 6.72016 11.4334 4.6785 10.64L4.66683 8.16669H11.6668V5.83335C11.6668 5.50669 11.9235 5.25002 12.2502 5.25002ZM12.2502 2.91669C10.6402 2.91669 9.3335 4.22335 9.3335 5.83335H4.66683C3.3835 5.83335 2.34516 6.88335 2.34516 8.16669V12.6H2.6835C4.42183 12.6 5.8335 14.0117 5.8335 15.75C5.8335 17.4884 4.42183 18.9 2.6835 18.9H2.3335V23.3334C2.3335 24.6167 3.3835 25.6667 4.66683 25.6667H9.10016V25.3167C9.10016 23.5784 10.5118 22.1667 12.2502 22.1667C13.9885 22.1667 15.4002 23.5784 15.4002 25.3167V25.6667H19.8335C21.1168 25.6667 22.1668 24.6167 22.1668 23.3334V18.6667C23.7768 18.6667 25.0835 17.36 25.0835 15.75C25.0835 14.14 23.7768 12.8334 22.1668 12.8334V8.16669C22.1668 6.88335 21.1168 5.83335 19.8335 5.83335H15.1668C15.1668 4.22335 13.8602 2.91669 12.2502 2.91669Z" fill="#67A5EB"/>
</g>
<defs>
<clipPath id="clip0_1_384">
<rect width="28" height="28" fill="white"/>
</clipPath>
</defs>
</svg>
