<svg width="28" height="28" viewBox="0 0 28 28" fill="none" xmlns="http://www.w3.org/2000/svg">
<g clip-path="url(#clip0_1_404)">
<path d="M12.8335 21H15.1668V18.6666H12.8335V21ZM14.0002 2.33331C7.56016 2.33331 2.3335 7.55998 2.3335 14C2.3335 20.44 7.56016 25.6666 14.0002 25.6666C20.4402 25.6666 25.6668 20.44 25.6668 14C25.6668 7.55998 20.4402 2.33331 14.0002 2.33331ZM14.0002 23.3333C8.85516 23.3333 4.66683 19.145 4.66683 14C4.66683 8.85498 8.85516 4.66665 14.0002 4.66665C19.1452 4.66665 23.3335 8.85498 23.3335 14C23.3335 19.145 19.1452 23.3333 14.0002 23.3333ZM14.0002 6.99998C11.4218 6.99998 9.3335 9.08831 9.3335 11.6666H11.6668C11.6668 10.3833 12.7168 9.33331 14.0002 9.33331C15.2835 9.33331 16.3335 10.3833 16.3335 11.6666C16.3335 14 12.8335 13.7083 12.8335 17.5H15.1668C15.1668 14.875 18.6668 14.5833 18.6668 11.6666C18.6668 9.08831 16.5785 6.99998 14.0002 6.99998Z" fill="#67A5EB"/>
</g>
<defs>
<clipPath id="clip0_1_404">
<rect width="28" height="28" fill="white"/>
</clipPath>
</defs>
</svg>
