<svg width="16" height="10" viewBox="0 0 16 10" fill="none" xmlns="http://www.w3.org/2000/svg">
<path d="M8.00033 0C4.66699 0 1.82033 2.07333 0.666992 5C1.82033 7.92667 4.66699 10 8.00033 10C11.3337 10 14.1803 7.92667 15.3337 5C14.1803 2.07333 11.3337 0 8.00033 0ZM8.00033 8.33333C6.16033 8.33333 4.66699 6.84 4.66699 5C4.66699 3.16 6.16033 1.66667 8.00033 1.66667C9.84033 1.66667 11.3337 3.16 11.3337 5C11.3337 6.84 9.84033 8.33333 8.00033 8.33333ZM8.00033 3C6.89366 3 6.00033 3.89333 6.00033 5C6.00033 6.10667 6.89366 7 8.00033 7C9.10699 7 10.0003 6.10667 10.0003 5C10.0003 3.89333 9.10699 3 8.00033 3Z" fill="#99A2AD"/>
</svg>
