<svg width="705" height="791" viewBox="0 0 705 791" fill="none" xmlns="http://www.w3.org/2000/svg">
<ellipse cx="253" cy="359" rx="452" ry="432" fill="black"/>
<g filter="url(#filter0_d_45_14)">
<path d="M239.041 311H184.97L188.769 323.714L253.353 539.847L291.521 655.86L350.363 552.561L334.459 530.312L309.014 574.81L242.413 323.714L239.041 311Z" fill="#F5F5F5"/>
<path d="M334.459 530.312L350.363 552.561L463.359 323.714L469.636 311H436.24L334.459 530.312Z" fill="#F5F5F5"/>
<path d="M41.8416 311H95.9123L170.657 574.81L197.692 530.312L216.776 552.561L148.393 655.86L110.225 539.847L45.6407 323.714L41.8416 311Z" fill="#F5F5F5"/>
<path d="M41.8416 311H-17V323.714H45.6407L41.8416 311Z" fill="#F5F5F5"/>
<path d="M184.97 311H148.393V323.714H188.769L184.97 311Z" fill="#F5F5F5"/>
<path d="M239.041 311L242.413 323.714H275.618V311H239.041Z" fill="#F5F5F5"/>
<path d="M523.707 311H469.636L463.359 323.714H523.707V311Z" fill="#F5F5F5"/>
<path d="M41.8416 311H-17V323.714H45.6407M41.8416 311H95.9123L170.657 574.81L197.692 530.312L216.776 552.561L148.393 655.86L110.225 539.847L45.6407 323.714M41.8416 311L45.6407 323.714M148.393 311H184.97M148.393 311H275.618M148.393 311V323.714H188.769M239.041 311H184.97M239.041 311L242.413 323.714M239.041 311H275.618M184.97 311L188.769 323.714M350.363 552.561L291.521 655.86L253.353 539.847L188.769 323.714M350.363 552.561L334.459 530.312M350.363 552.561L463.359 323.714M334.459 530.312L309.014 574.81L242.413 323.714M334.459 530.312L436.24 311H469.636M275.618 311V323.714H242.413M469.636 311H523.707V323.714H463.359M469.636 311L463.359 323.714M188.769 323.714H242.413" stroke="#C6D1D2"/>
</g>
<g filter="url(#filter1_d_45_14)">
<path d="M300.926 198H326.363L439.242 404.083V198H467.064H509.195V212.267H467.064V496.027H439.242L406.67 412.029L373.745 345.741L356.57 315.309L326.363 269.336V496.027H300.926V212.267H258V198H300.926Z" fill="#C2D6DA"/>
</g>
<path d="M527.968 491.672C522.272 491.672 517.28 490.552 512.992 488.312C508.768 486.008 505.472 482.872 503.104 478.904C500.8 474.936 499.648 470.424 499.648 465.368C499.648 460.248 500.768 455.736 503.008 451.832C505.312 447.864 508.448 444.76 512.416 442.52C516.448 440.28 521.024 439.16 526.144 439.16C531.136 439.16 535.584 440.248 539.488 442.424C543.392 444.6 546.464 447.672 548.704 451.64C550.944 455.608 552.064 460.28 552.064 465.656C552.064 466.168 552.032 466.744 551.968 467.384C551.968 468.024 551.936 468.632 551.872 469.208H509.152V461.24H545.536L540.832 463.736C540.896 460.792 540.288 458.2 539.008 455.96C537.728 453.72 535.968 451.96 533.728 450.68C531.552 449.4 529.024 448.76 526.144 448.76C523.2 448.76 520.608 449.4 518.368 450.68C516.192 451.96 514.464 453.752 513.184 456.056C511.968 458.296 511.36 460.952 511.36 464.024V465.944C511.36 469.016 512.064 471.736 513.472 474.104C514.88 476.472 516.864 478.296 519.424 479.576C521.984 480.856 524.928 481.496 528.256 481.496C531.136 481.496 533.728 481.048 536.032 480.152C538.336 479.256 540.384 477.848 542.176 475.928L548.608 483.32C546.304 486.008 543.392 488.088 539.872 489.56C536.416 490.968 532.448 491.672 527.968 491.672ZM586.631 491.672C581.383 491.672 576.711 490.552 572.615 488.312C568.519 486.008 565.287 482.872 562.919 478.904C560.551 474.936 559.367 470.424 559.367 465.368C559.367 460.248 560.551 455.736 562.919 451.832C565.287 447.864 568.519 444.76 572.615 442.52C576.711 440.28 581.383 439.16 586.631 439.16C591.943 439.16 596.647 440.28 600.743 442.52C604.903 444.76 608.135 447.832 610.439 451.736C612.807 455.64 613.991 460.184 613.991 465.368C613.991 470.424 612.807 474.936 610.439 478.904C608.135 482.872 604.903 486.008 600.743 488.312C596.647 490.552 591.943 491.672 586.631 491.672ZM586.631 481.4C589.575 481.4 592.199 480.76 594.503 479.48C596.807 478.2 598.599 476.344 599.879 473.912C601.223 471.48 601.895 468.632 601.895 465.368C601.895 462.04 601.223 459.192 599.879 456.824C598.599 454.392 596.807 452.536 594.503 451.256C592.199 449.976 589.607 449.336 586.727 449.336C583.783 449.336 581.159 449.976 578.855 451.256C576.615 452.536 574.823 454.392 573.479 456.824C572.135 459.192 571.463 462.04 571.463 465.368C571.463 468.632 572.135 471.48 573.479 473.912C574.823 476.344 576.615 478.2 578.855 479.48C581.159 480.76 583.751 481.4 586.631 481.4Z" fill="#C2D6DA"/>
<path d="M375.968 656.672C370.272 656.672 365.28 655.552 360.992 653.312C356.768 651.008 353.472 647.872 351.104 643.904C348.8 639.936 347.648 635.424 347.648 630.368C347.648 625.248 348.768 620.736 351.008 616.832C353.312 612.864 356.448 609.76 360.416 607.52C364.448 605.28 369.024 604.16 374.144 604.16C379.136 604.16 383.584 605.248 387.488 607.424C391.392 609.6 394.464 612.672 396.704 616.64C398.944 620.608 400.064 625.28 400.064 630.656C400.064 631.168 400.032 631.744 399.968 632.384C399.968 633.024 399.936 633.632 399.872 634.208H357.152V626.24H393.536L388.832 628.736C388.896 625.792 388.288 623.2 387.008 620.96C385.728 618.72 383.968 616.96 381.728 615.68C379.552 614.4 377.024 613.76 374.144 613.76C371.2 613.76 368.608 614.4 366.368 615.68C364.192 616.96 362.464 618.752 361.184 621.056C359.968 623.296 359.36 625.952 359.36 629.024V630.944C359.36 634.016 360.064 636.736 361.472 639.104C362.88 641.472 364.864 643.296 367.424 644.576C369.984 645.856 372.928 646.496 376.256 646.496C379.136 646.496 381.728 646.048 384.032 645.152C386.336 644.256 388.384 642.848 390.176 640.928L396.608 648.32C394.304 651.008 391.392 653.088 387.872 654.56C384.416 655.968 380.448 656.672 375.968 656.672Z" fill="#F5F5F5"/>
<defs>
<filter id="filter0_d_45_14" x="-20.5" y="309.5" width="559.707" height="364.586" filterUnits="userSpaceOnUse" color-interpolation-filters="sRGB">
<feFlood flood-opacity="0" result="BackgroundImageFix"/>
<feColorMatrix in="SourceAlpha" type="matrix" values="0 0 0 0 0 0 0 0 0 0 0 0 0 0 0 0 0 0 127 0" result="hardAlpha"/>
<feOffset dx="6" dy="8"/>
<feGaussianBlur stdDeviation="4.5"/>
<feComposite in2="hardAlpha" operator="out"/>
<feColorMatrix type="matrix" values="0 0 0 0 0 0 0 0 0 0 0 0 0 0 0 0 0 0 0.25 0"/>
<feBlend mode="normal" in2="BackgroundImageFix" result="effect1_dropShadow_45_14"/>
<feBlend mode="normal" in="SourceGraphic" in2="effect1_dropShadow_45_14" result="shape"/>
</filter>
<filter id="filter1_d_45_14" x="258" y="198" width="267.194" height="314.027" filterUnits="userSpaceOnUse" color-interpolation-filters="sRGB">
<feFlood flood-opacity="0" result="BackgroundImageFix"/>
<feColorMatrix in="SourceAlpha" type="matrix" values="0 0 0 0 0 0 0 0 0 0 0 0 0 0 0 0 0 0 127 0" result="hardAlpha"/>
<feOffset dx="8" dy="8"/>
<feGaussianBlur stdDeviation="4"/>
<feComposite in2="hardAlpha" operator="out"/>
<feColorMatrix type="matrix" values="0 0 0 0 0 0 0 0 0 0 0 0 0 0 0 0 0 0 0.25 0"/>
<feBlend mode="normal" in2="BackgroundImageFix" result="effect1_dropShadow_45_14"/>
<feBlend mode="normal" in="SourceGraphic" in2="effect1_dropShadow_45_14" result="shape"/>
</filter>
</defs>
</svg>
