<svg width="24" height="12" viewBox="0 0 24 12" fill="none" xmlns="http://www.w3.org/2000/svg">
<path d="M17.8334 0.166687H13.1667V2.50002H17.8334C19.7584 2.50002 21.3334 4.07502 21.3334 6.00002C21.3334 7.92502 19.7584 9.50002 17.8334 9.50002H13.1667V11.8334H17.8334C21.0534 11.8334 23.6667 9.22002 23.6667 6.00002C23.6667 2.78002 21.0534 0.166687 17.8334 0.166687ZM10.8334 9.50002H6.16671C4.24171 9.50002 2.66671 7.92502 2.66671 6.00002C2.66671 4.07502 4.24171 2.50002 6.16671 2.50002H10.8334V0.166687H6.16671C2.94671 0.166687 0.333374 2.78002 0.333374 6.00002C0.333374 9.22002 2.94671 11.8334 6.16671 11.8334H10.8334V9.50002ZM7.33337 4.83335H16.6667V7.16669H7.33337V4.83335Z" fill="#67A5EB"/>
</svg>
