<svg width="70" height="70" viewBox="0 0 70 70" fill="none" xmlns="http://www.w3.org/2000/svg">
<rect width="70" height="70" rx="15" fill="url(#paint0_linear_34_289)"/>
<path fill-rule="evenodd" clip-rule="evenodd" d="M28.4062 27C28.0333 27 27.6756 27.1482 27.4119 27.4119C27.1482 27.6756 27 28.0333 27 28.4062V40.5938C27 41.37 27.63 42 28.4062 42H40.5938C40.9667 42 41.3244 41.8518 41.5881 41.5881C41.8518 41.3244 42 40.9667 42 40.5938V28.4062C42 28.0333 41.8518 27.6756 41.5881 27.4119C41.3244 27.1482 40.9667 27 40.5938 27H28.4062ZM29.8125 39.1875V29.8125H39.1875V39.1875H29.8125Z" fill="white"/>
<path fill-rule="evenodd" clip-rule="evenodd" d="M40.5938 13.875C40.9667 13.875 41.3244 14.0232 41.5881 14.2869C41.8518 14.5506 42 14.9083 42 15.2812V19.5H46.2188C48.03 19.5 49.5 20.97 49.5 22.7812V27H53.7188C54.0917 27 54.4494 27.1482 54.7131 27.4119C54.9768 27.6756 55.125 28.0333 55.125 28.4062C55.125 28.7792 54.9768 29.1369 54.7131 29.4006C54.4494 29.6643 54.0917 29.8125 53.7188 29.8125H49.5V39.1875H53.7188C54.0917 39.1875 54.4494 39.3357 54.7131 39.5994C54.9768 39.8631 55.125 40.2208 55.125 40.5938C55.125 40.9667 54.9768 41.3244 54.7131 41.5881C54.4494 41.8518 54.0917 42 53.7188 42H49.5V46.2188C49.5 47.089 49.1543 47.9236 48.5389 48.5389C47.9236 49.1543 47.089 49.5 46.2188 49.5H42V53.7188C42 54.0917 41.8518 54.4494 41.5881 54.7131C41.3244 54.9768 40.9667 55.125 40.5938 55.125C40.2208 55.125 39.8631 54.9768 39.5994 54.7131C39.3357 54.4494 39.1875 54.0917 39.1875 53.7188V49.5H29.8125V53.7188C29.8125 54.0917 29.6643 54.4494 29.4006 54.7131C29.1369 54.9768 28.7792 55.125 28.4062 55.125C28.0333 55.125 27.6756 54.9768 27.4119 54.7131C27.1482 54.4494 27 54.0917 27 53.7188V49.5H22.7812C21.911 49.5 21.0764 49.1543 20.4611 48.5389C19.8457 47.9236 19.5 47.089 19.5 46.2188V42H15.2812C14.9083 42 14.5506 41.8518 14.2869 41.5881C14.0232 41.3244 13.875 40.9667 13.875 40.5938C13.875 40.2208 14.0232 39.8631 14.2869 39.5994C14.5506 39.3357 14.9083 39.1875 15.2812 39.1875H19.5V29.8125H15.2812C14.9083 29.8125 14.5506 29.6643 14.2869 29.4006C14.0232 29.1369 13.875 28.7792 13.875 28.4062C13.875 28.0333 14.0232 27.6756 14.2869 27.4119C14.5506 27.1482 14.9083 27 15.2812 27H19.5V22.7812C19.5 20.97 20.97 19.5 22.7812 19.5H27V15.2812C27 14.9083 27.1482 14.5506 27.4119 14.2869C27.6756 14.0232 28.0333 13.875 28.4062 13.875C28.7792 13.875 29.1369 14.0232 29.4006 14.2869C29.6643 14.5506 29.8125 14.9083 29.8125 15.2812V19.5H39.1875V15.2812C39.1875 14.9083 39.3357 14.5506 39.5994 14.2869C39.8631 14.0232 40.2208 13.875 40.5938 13.875V13.875ZM46.2188 46.6875C46.3431 46.6875 46.4623 46.6381 46.5502 46.5502C46.6381 46.4623 46.6875 46.3431 46.6875 46.2188V22.7812C46.6875 22.6569 46.6381 22.5377 46.5502 22.4498C46.4623 22.3619 46.3431 22.3125 46.2188 22.3125H22.7812C22.6569 22.3125 22.5377 22.3619 22.4498 22.4498C22.3619 22.5377 22.3125 22.6569 22.3125 22.7812V46.2188C22.3125 46.4775 22.5225 46.6875 22.7812 46.6875H46.2188Z" fill="white"/>
<defs>
<linearGradient id="paint0_linear_34_289" x1="70" y1="70" x2="0" y2="0" gradientUnits="userSpaceOnUse">
<stop stop-color="#0060FF"/>
<stop offset="0.973369" stop-color="#56D3EC"/>
</linearGradient>
</defs>
</svg>
