<svg width="71" height="71" viewBox="0 0 71 71" fill="none" xmlns="http://www.w3.org/2000/svg">
<path d="M35.5 71C15.9253 71 0 55.0747 0 35.5C0 15.9253 15.9253 0 35.5 0C55.0747 0 71 15.9253 71 35.5C71 55.0747 55.0747 71 35.5 71ZM35.5 2.36667C17.2293 2.36667 2.36667 17.2293 2.36667 35.5C2.36667 53.7707 17.2293 68.6333 35.5 68.6333C53.7707 68.6333 68.6333 53.7707 68.6333 35.5C68.6333 17.2293 53.7707 2.36667 35.5 2.36667Z" fill="#263238"/>
<path d="M53.5812 46.6539L42.3111 42.7441L41.5467 36.6287C41.0378 37.3552 40.3089 37.9209 39.3599 38.2167L40.0533 43.7665C40.1077 44.2138 40.413 44.5925 40.839 44.7369L52.8025 48.8927C54.9325 49.6359 56.7998 52.27 56.7998 54.5278V54.5112C56.7998 55.1644 57.33 55.6945 57.9832 55.6945C58.634 55.6945 59.1641 55.1668 59.1665 54.5159C59.1594 51.2523 56.6578 47.7307 53.5812 46.6539Z" fill="#263238"/>
<path d="M13.0168 55.6922C12.3636 55.6922 11.8335 55.1621 11.8335 54.5089V54.5255C11.8335 51.2618 14.3398 47.7308 17.4165 46.6539L28.6865 42.7702L28.7149 42.1076C28.7954 41.4591 29.3989 41.0071 30.0379 41.0804C30.684 41.1609 31.1455 41.7526 31.065 42.4034L30.9443 43.7974C30.8899 44.2447 30.5822 44.621 30.1562 44.7677L18.1951 48.8904C16.0675 49.6359 14.2002 52.27 14.2002 54.5255V54.5089C14.2002 55.1645 13.67 55.6922 13.0168 55.6922Z" fill="#263238"/>
<path d="M35.4996 40.3254C28.9226 40.3254 25.5785 35.9613 25.5572 25.0155C25.5525 22.237 25.8483 19.423 28.4611 16.8055C30.1249 15.137 32.4915 14.2921 35.4996 14.2921C38.5076 14.2921 40.8743 15.137 42.5404 16.8079C45.1532 19.423 45.449 22.2394 45.4443 25.0178C45.4206 35.9613 42.0765 40.3254 35.4996 40.3254ZM35.4996 16.6588C33.1116 16.6588 31.3579 17.2552 30.1343 18.4787C28.6386 19.9768 27.9144 21.3187 27.9215 25.0131C27.9404 34.5224 30.4183 37.9612 35.4972 37.9612C40.576 37.9612 43.054 34.5224 43.0729 25.0131C43.08 21.3187 42.3558 19.9768 40.86 18.4787C39.6412 17.2552 37.8875 16.6588 35.4996 16.6588Z" fill="#263238"/>
</svg>
