<svg width="42" height="42" viewBox="0 0 42 42" fill="none" xmlns="http://www.w3.org/2000/svg">
<mask id="mask0_40_571" style="mask-type:alpha" maskUnits="userSpaceOnUse" x="0" y="0" width="42" height="42">
<rect width="42" height="42" fill="#D9D9D9"/>
</mask>
<g mask="url(#mask0_40_571)">
<path d="M21 22.75C19.075 22.75 17.4271 22.0646 16.0563 20.6937C14.6854 19.3229 14 17.675 14 15.75V9.625C14 8.89583 14.2555 8.27633 14.7665 7.7665C15.2763 7.2555 15.8958 7 16.625 7C17.0625 7 17.4784 7.10208 17.8728 7.30625C18.2659 7.51042 18.5792 7.80208 18.8125 8.18125C19.0458 7.80208 19.3597 7.51042 19.754 7.30625C20.1472 7.10208 20.5625 7 21 7C21.4375 7 21.8534 7.10208 22.2478 7.30625C22.6409 7.51042 22.9542 7.80208 23.1875 8.18125C23.4208 7.80208 23.7347 7.51042 24.129 7.30625C24.5222 7.10208 24.9375 7 25.375 7C26.1042 7 26.7237 7.2555 27.2335 7.7665C27.7445 8.27633 28 8.89583 28 9.625V15.75C28 17.675 27.3146 19.3229 25.9438 20.6937C24.5729 22.0646 22.925 22.75 21 22.75ZM21 19.25C21.9625 19.25 22.7867 18.907 23.4727 18.221C24.1576 17.5362 24.5 16.7125 24.5 15.75V11.375H17.5V15.75C17.5 16.7125 17.843 17.5362 18.529 18.221C19.2138 18.907 20.0375 19.25 21 19.25ZM7 36.75V31.85C7 30.8583 7.2555 29.9466 7.7665 29.1147C8.27633 28.2841 8.95417 27.65 9.8 27.2125C11.6083 26.3083 13.4458 25.6299 15.3125 25.1772C17.1792 24.7257 19.075 24.5 21 24.5C22.925 24.5 24.8208 24.7257 26.6875 25.1772C28.5542 25.6299 30.3917 26.3083 32.2 27.2125C33.0458 27.65 33.7237 28.2841 34.2335 29.1147C34.7445 29.9466 35 30.8583 35 31.85V36.75H7ZM10.5 33.25H31.5V31.85C31.5 31.5292 31.4201 31.2375 31.2603 30.975C31.0993 30.7125 30.8875 30.5083 30.625 30.3625C29.05 29.575 27.4604 28.9841 25.8562 28.5898C24.2521 28.1966 22.6333 28 21 28C19.3667 28 17.7479 28.1966 16.1438 28.5898C14.5396 28.9841 12.95 29.575 11.375 30.3625C11.1125 30.5083 10.9013 30.7125 10.7415 30.975C10.5805 31.2375 10.5 31.5292 10.5 31.85V33.25Z" fill="#1C1B1F"/>
</g>
</svg>
