<svg width="28" height="28" viewBox="0 0 28 28" fill="none" xmlns="http://www.w3.org/2000/svg">
<g clip-path="url(#clip0_1_399)">
<path d="M13.9998 6.88335C15.3532 6.88335 16.4498 7.98002 16.4498 9.33335C16.4498 10.6867 15.3532 11.7834 13.9998 11.7834C12.6465 11.7834 11.5498 10.6867 11.5498 9.33335C11.5498 7.98002 12.6465 6.88335 13.9998 6.88335ZM13.9998 17.3834C17.4648 17.3834 21.1165 19.0867 21.1165 19.8334V21.1167H6.88317V19.8334C6.88317 19.0867 10.5348 17.3834 13.9998 17.3834ZM13.9998 4.66669C11.4215 4.66669 9.33317 6.75502 9.33317 9.33335C9.33317 11.9117 11.4215 14 13.9998 14C16.5782 14 18.6665 11.9117 18.6665 9.33335C18.6665 6.75502 16.5782 4.66669 13.9998 4.66669ZM13.9998 15.1667C10.8848 15.1667 4.6665 16.73 4.6665 19.8334V23.3334H23.3332V19.8334C23.3332 16.73 17.1148 15.1667 13.9998 15.1667Z" fill="#67A5EB"/>
</g>
<defs>
<clipPath id="clip0_1_399">
<rect width="28" height="28" fill="white"/>
</clipPath>
</defs>
</svg>
