<svg width="70" height="70" viewBox="0 0 70 70" fill="none" xmlns="http://www.w3.org/2000/svg">
<rect width="70" height="70" rx="15" fill="url(#paint0_linear_34_242)"/>
<path d="M41.8889 20.0362L35.0556 24.0724L28.1933 20.0362L35.0556 16L41.8889 20.0362ZM52.2978 26.1628L45.4356 30.199L52.2978 34.2352L59.1311 30.199L52.2978 26.1628ZM19.5878 35.2798L26.45 39.316L33.2833 35.2798L26.45 31.2436L19.5878 35.2798ZM35.09 26.1707L28.2278 30.2069L35.09 34.2431L41.9233 30.2069L35.09 26.1707ZM10 39.7897L16.8889 43.8248V35.7976L10 31.7671V39.7942V39.7897ZM51.4444 36.8502L44.5556 40.8852V48.9056L51.4444 44.8739V36.8502ZM26.4322 21.0899L19.57 25.1261L26.4322 29.1622L33.2656 25.1261L26.4322 21.0899ZM18.6667 44.8705L25.5556 48.9056V40.8852L18.6667 36.8502V44.8773V44.8705ZM43.7122 31.2527L36.85 35.2889L43.7122 39.325L50.5456 35.2889L43.7122 31.2527ZM34.2222 45.9729L27.3333 41.9367V49.9638L34.2222 54V45.9729ZM42.7778 41.9401L36 45.9729V53.9932L42.7778 49.9616V41.9401V41.9401ZM43.6744 21.0808L36.8122 25.117L43.6744 29.1532L50.5078 25.117L43.6744 21.0808ZM17.83 26.1628L10.9667 30.199L17.8289 34.2352L24.6622 30.199L17.83 26.1628ZM60 31.7852L53.2222 35.8168V43.8372L60 39.8055V31.7852ZM28.21 40.3697L35.0722 44.4059L41.9056 40.3697L35.0722 36.3335L28.21 40.3697Z" fill="white"/>
<defs>
<linearGradient id="paint0_linear_34_242" x1="70" y1="70" x2="0" y2="0" gradientUnits="userSpaceOnUse">
<stop stop-color="#0060FF"/>
<stop offset="0.837952" stop-color="#56D3EC"/>
</linearGradient>
</defs>
</svg>
