<svg width="42" height="42" viewBox="0 0 42 42" fill="none" xmlns="http://www.w3.org/2000/svg">
<mask id="mask0_40_565" style="mask-type:alpha" maskUnits="userSpaceOnUse" x="0" y="0" width="42" height="42">
<rect width="42" height="42" fill="#D9D9D9"/>
</mask>
<g mask="url(#mask0_40_565)">
<path d="M8.75 36.75C7.7875 36.75 6.96325 36.4076 6.27725 35.7227C5.59242 35.0368 5.25 34.2125 5.25 33.25V8.75C5.25 7.7875 5.59242 6.96325 6.27725 6.27725C6.96325 5.59242 7.7875 5.25 8.75 5.25H33.25C34.2125 5.25 35.0368 5.59242 35.7227 6.27725C36.4076 6.96325 36.75 7.7875 36.75 8.75V33.25C36.75 34.2125 36.4076 35.0368 35.7227 35.7227C35.0368 36.4076 34.2125 36.75 33.25 36.75H8.75ZM8.75 33.25H33.25V12.25H8.75V33.25ZM21 29.75C18.6083 29.75 16.4722 29.1007 14.5915 27.8022C12.7097 26.5049 11.3458 24.8208 10.5 22.75C11.3458 20.6792 12.7097 18.9951 14.5915 17.6978C16.4722 16.3993 18.6083 15.75 21 15.75C23.3917 15.75 25.5284 16.3993 27.4102 17.6978C29.2909 18.9951 30.6542 20.6792 31.5 22.75C30.6542 24.8208 29.2909 26.5049 27.4102 27.8022C25.5284 29.1007 23.3917 29.75 21 29.75ZM21 27.125C22.6333 27.125 24.1208 26.7383 25.4625 25.9648C26.8042 25.1924 27.8542 24.1208 28.6125 22.75C27.8542 21.3792 26.8042 20.307 25.4625 19.5335C24.1208 18.7612 22.6333 18.375 21 18.375C19.3667 18.375 17.8792 18.7612 16.5375 19.5335C15.1958 20.307 14.1458 21.3792 13.3875 22.75C14.1458 24.1208 15.1958 25.1924 16.5375 25.9648C17.8792 26.7383 19.3667 27.125 21 27.125ZM21 25.375C20.2708 25.375 19.6513 25.1195 19.1415 24.6085C18.6305 24.0987 18.375 23.4792 18.375 22.75C18.375 22.0208 18.6305 21.4013 19.1415 20.8915C19.6513 20.3805 20.2708 20.125 21 20.125C21.7292 20.125 22.3487 20.3805 22.8585 20.8915C23.3695 21.4013 23.625 22.0208 23.625 22.75C23.625 23.4792 23.3695 24.0987 22.8585 24.6085C22.3487 25.1195 21.7292 25.375 21 25.375Z" fill="#1C1B1F"/>
</g>
</svg>
