<svg width="28" height="28" viewBox="0 0 28 28" fill="none" xmlns="http://www.w3.org/2000/svg">
<g clip-path="url(#clip0_1_394)">
<path d="M22.6681 15.1433C22.7148 14.77 22.7498 14.3966 22.7498 14C22.7498 13.6033 22.7148 13.23 22.6681 12.8566L25.1298 10.9316C25.3515 10.7566 25.4098 10.4416 25.2698 10.185L22.9365 6.14831C22.8315 5.96165 22.6331 5.85665 22.4231 5.85665C22.3531 5.85665 22.2831 5.86831 22.2248 5.89165L19.3198 7.05831C18.7131 6.59165 18.0598 6.20665 17.3481 5.91498L16.9048 2.82331C16.8698 2.54331 16.6248 2.33331 16.3331 2.33331H11.6665C11.3748 2.33331 11.1298 2.54331 11.0948 2.82331L10.6515 5.91498C9.93981 6.20665 9.28648 6.60331 8.67981 7.05831L5.77481 5.89165C5.70481 5.86831 5.63481 5.85665 5.56481 5.85665C5.36648 5.85665 5.16815 5.96165 5.06315 6.14831L2.72981 10.185C2.57815 10.4416 2.64815 10.7566 2.86981 10.9316L5.33148 12.8566C5.28481 13.23 5.24981 13.615 5.24981 14C5.24981 14.385 5.28481 14.77 5.33148 15.1433L2.86981 17.0683C2.64815 17.2433 2.58981 17.5583 2.72981 17.815L5.06315 21.8516C5.16815 22.0383 5.36648 22.1433 5.57648 22.1433C5.64648 22.1433 5.71648 22.1316 5.77481 22.1083L8.67981 20.9416C9.28648 21.4083 9.93981 21.7933 10.6515 22.085L11.0948 25.1766C11.1298 25.4566 11.3748 25.6666 11.6665 25.6666H16.3331C16.6248 25.6666 16.8698 25.4566 16.9048 25.1766L17.3481 22.085C18.0598 21.7933 18.7131 21.3966 19.3198 20.9416L22.2248 22.1083C22.2948 22.1316 22.3648 22.1433 22.4348 22.1433C22.6331 22.1433 22.8315 22.0383 22.9365 21.8516L25.2698 17.815C25.4098 17.5583 25.3515 17.2433 25.1298 17.0683L22.6681 15.1433ZM20.3581 13.1483C20.4048 13.51 20.4165 13.755 20.4165 14C20.4165 14.245 20.3931 14.5016 20.3581 14.8516L20.1948 16.17L21.2331 16.9866L22.4931 17.9666L21.6765 19.3783L20.1948 18.7833L18.9815 18.2933L17.9315 19.0866C17.4298 19.46 16.9515 19.74 16.4731 19.9383L15.2365 20.44L15.0498 21.7583L14.8165 23.3333H13.1831L12.9615 21.7583L12.7748 20.44L11.5381 19.9383C11.0365 19.7283 10.5698 19.46 10.1031 19.11L9.04148 18.2933L7.80481 18.795L6.32315 19.39L5.50648 17.9783L6.76648 16.9983L7.80481 16.1816L7.64148 14.8633C7.60648 14.5016 7.58315 14.2333 7.58315 14C7.58315 13.7666 7.60648 13.4983 7.64148 13.1483L7.80481 11.83L6.76648 11.0133L5.50648 10.0333L6.32315 8.62165L7.80481 9.21665L9.01815 9.70665L10.0681 8.91331C10.5698 8.53998 11.0481 8.25998 11.5265 8.06165L12.7631 7.55998L12.9498 6.24165L13.1831 4.66665H14.8048L15.0265 6.24165L15.2131 7.55998L16.4498 8.06165C16.9515 8.27165 17.4181 8.53998 17.8848 8.88998L18.9465 9.70665L20.1831 9.20498L21.6648 8.60998L22.4815 10.0216L21.2331 11.0133L20.1948 11.83L20.3581 13.1483ZM13.9998 9.33331C11.4215 9.33331 9.33315 11.4216 9.33315 14C9.33315 16.5783 11.4215 18.6666 13.9998 18.6666C16.5781 18.6666 18.6665 16.5783 18.6665 14C18.6665 11.4216 16.5781 9.33331 13.9998 9.33331ZM13.9998 16.3333C12.7165 16.3333 11.6665 15.2833 11.6665 14C11.6665 12.7166 12.7165 11.6666 13.9998 11.6666C15.2831 11.6666 16.3331 12.7166 16.3331 14C16.3331 15.2833 15.2831 16.3333 13.9998 16.3333Z" fill="#67A5EB"/>
</g>
<defs>
<clipPath id="clip0_1_394">
<rect width="28" height="28" fill="white"/>
</clipPath>
</defs>
</svg>
