<svg width="42" height="42" viewBox="0 0 42 42" fill="none" xmlns="http://www.w3.org/2000/svg">
<mask id="mask0_40_541" style="mask-type:alpha" maskUnits="userSpaceOnUse" x="0" y="0" width="42" height="42">
<rect width="42" height="42" fill="#D9D9D9"/>
</mask>
<g mask="url(#mask0_40_541)">
<path d="M16.1881 38.5L15.4881 32.9C15.1089 32.7542 14.7519 32.5792 14.4171 32.375C14.0811 32.1708 13.7527 31.9521 13.4318 31.7188L8.22558 33.9062L3.41309 25.5938L7.91934 22.1812C7.89017 21.9771 7.87559 21.7799 7.87559 21.5898V20.4085C7.87559 20.2195 7.89017 20.0229 7.91934 19.8188L3.41309 16.4062L8.22558 8.09375L13.4318 10.2812C13.7527 10.0479 14.0881 9.82917 14.4381 9.625C14.7881 9.42083 15.1381 9.24583 15.4881 9.1L16.1881 3.5H25.8131L26.5131 9.1C26.8923 9.24583 27.2498 9.42083 27.5858 9.625C27.9207 9.82917 28.2485 10.0479 28.5693 10.2812L33.7756 8.09375L38.5881 16.4062L34.0818 19.8188C34.111 20.0229 34.1256 20.2195 34.1256 20.4085V21.5898C34.1256 21.7799 34.0964 21.9771 34.0381 22.1812L38.5443 25.5938L33.7318 33.9062L28.5693 31.7188C28.2485 31.9521 27.9131 32.1708 27.5631 32.375C27.2131 32.5792 26.8631 32.7542 26.5131 32.9L25.8131 38.5H16.1881ZM21.0881 27.125C22.7798 27.125 24.2235 26.5271 25.4193 25.3313C26.6152 24.1354 27.2131 22.6917 27.2131 21C27.2131 19.3083 26.6152 17.8646 25.4193 16.6687C24.2235 15.4729 22.7798 14.875 21.0881 14.875C19.3673 14.875 17.9159 15.4729 16.7341 16.6687C15.5534 17.8646 14.9631 19.3083 14.9631 21C14.9631 22.6917 15.5534 24.1354 16.7341 25.3313C17.9159 26.5271 19.3673 27.125 21.0881 27.125ZM21.0881 23.625C20.3589 23.625 19.7394 23.3695 19.2296 22.8585C18.7186 22.3487 18.4631 21.7292 18.4631 21C18.4631 20.2708 18.7186 19.6513 19.2296 19.1415C19.7394 18.6305 20.3589 18.375 21.0881 18.375C21.8173 18.375 22.4373 18.6305 22.9483 19.1415C23.4582 19.6513 23.7131 20.2708 23.7131 21C23.7131 21.7292 23.4582 22.3487 22.9483 22.8585C22.4373 23.3695 21.8173 23.625 21.0881 23.625ZM19.2506 35H22.7068L23.3193 30.3625C24.2235 30.1292 25.0623 29.7862 25.8358 29.3335C26.6082 28.882 27.3152 28.3354 27.9568 27.6938L32.2881 29.4875L33.9943 26.5125L30.2318 23.6687C30.3777 23.2604 30.4798 22.8299 30.5381 22.3772C30.5964 21.9257 30.6256 21.4667 30.6256 21C30.6256 20.5333 30.5964 20.0737 30.5381 19.621C30.4798 19.1695 30.3777 18.7396 30.2318 18.3313L33.9943 15.4875L32.2881 12.5125L27.9568 14.35C27.3152 13.6792 26.6082 13.1174 25.8358 12.6648C25.0623 12.2133 24.2235 11.8708 23.3193 11.6375L22.7506 7H19.2943L18.6818 11.6375C17.7777 11.8708 16.9394 12.2133 16.1671 12.6648C15.3936 13.1174 14.686 13.6646 14.0443 14.3063L9.71309 12.5125L8.00683 15.4875L11.7693 18.2875C11.6235 18.725 11.5214 19.1625 11.4631 19.6C11.4048 20.0375 11.3756 20.5042 11.3756 21C11.3756 21.4667 11.4048 21.9187 11.4631 22.3562C11.5214 22.7937 11.6235 23.2312 11.7693 23.6687L8.00683 26.5125L9.71309 29.4875L14.0443 27.65C14.686 28.3208 15.3936 28.882 16.1671 29.3335C16.9394 29.7862 17.7777 30.1292 18.6818 30.3625L19.2506 35Z" fill="#1C1B1F"/>
</g>
</svg>
