<svg width="87" height="87" viewBox="0 0 87 87" fill="none" xmlns="http://www.w3.org/2000/svg">
<g clip-path="url(#clip0_34_220)">
<path d="M43.5 0C19.4754 0 0 19.4754 0 43.5C0 67.5246 19.4754 87 43.5 87C67.5246 87 87 67.5246 87 43.5C87 19.4754 67.5246 0 43.5 0Z" fill="#40B3E0"/>
<path d="M64.6662 25.0232L56.8967 64.1959C56.8967 64.1959 55.8102 66.9126 52.822 65.6087L34.8925 51.8627L28.373 48.7116L17.398 45.0168C17.398 45.0168 15.7138 44.4194 15.5506 43.1154C15.3879 41.8114 17.4524 41.1052 17.4524 41.1052L61.0802 23.9907C61.0802 23.9907 64.6662 22.4152 64.6662 25.0232Z" fill="white"/>
<path d="M33.5145 63.7559C33.5145 63.7559 32.9912 63.7069 32.339 61.642C31.6872 59.5775 28.373 48.7113 28.373 48.7113L54.7235 31.9774C54.7235 31.9774 56.245 31.0537 56.1906 31.9774C56.1906 31.9774 56.4622 32.1402 55.6472 32.9008C54.8323 33.6617 34.947 51.5365 34.947 51.5365" fill="#D2E5F1"/>
<path d="M41.7674 57.1331L34.6756 63.599C34.6756 63.599 34.1213 64.0197 33.5146 63.756L34.8727 51.7456" fill="#B5CFE4"/>
</g>
<defs>
<clipPath id="clip0_34_220">
<rect width="87" height="87" fill="white"/>
</clipPath>
</defs>
</svg>
