<svg width="22" height="22" viewBox="0 0 22 22" fill="none" xmlns="http://www.w3.org/2000/svg">
<path d="M13.5317 2.83333L19.1667 8.46833V19.1667H2.83333V2.83333H13.5317ZM13.5317 0.5H2.83333C1.55 0.5 0.5 1.55 0.5 2.83333V19.1667C0.5 20.45 1.55 21.5 2.83333 21.5H19.1667C20.45 21.5 21.5 20.45 21.5 19.1667V8.46833C21.5 7.85 21.255 7.255 20.8117 6.82333L15.1767 1.18833C14.745 0.745 14.15 0.5 13.5317 0.5ZM5.16667 14.5H16.8333V16.8333H5.16667V14.5ZM5.16667 9.83333H16.8333V12.1667H5.16667V9.83333ZM5.16667 5.16667H13.3333V7.5H5.16667V5.16667Z" fill="#67A5EB"/>
</svg>
