<svg width="42" height="42" viewBox="0 0 42 42" fill="none" xmlns="http://www.w3.org/2000/svg">
<mask id="mask0_40_532" style="mask-type:alpha" maskUnits="userSpaceOnUse" x="0" y="0" width="42" height="42">
<rect width="42" height="42" fill="#D9D9D9"/>
</mask>
<g mask="url(#mask0_40_532)">
<path d="M12.249 33.25V29.75H24.674C26.5115 29.75 28.1081 29.1667 29.4638 28C30.8206 26.8333 31.499 25.375 31.499 23.625C31.499 21.875 30.8206 20.4167 29.4638 19.25C28.1081 18.0833 26.5115 17.5 24.674 17.5H13.649L18.199 22.05L15.749 24.5L6.99902 15.75L15.749 7L18.199 9.45L13.649 14H24.674C27.5032 14 29.9316 14.9187 31.9593 16.7562C33.9858 18.5938 34.999 20.8833 34.999 23.625C34.999 26.3667 33.9858 28.6562 31.9593 30.4937C29.9316 32.3312 27.5032 33.25 24.674 33.25H12.249Z" fill="#1C1B1F"/>
</g>
</svg>
