<svg width="456" height="90" viewBox="0 0 456 90" fill="none" xmlns="http://www.w3.org/2000/svg">
<mask id="path-1-inside-1_1_702" fill="white">
<path fill-rule="evenodd" clip-rule="evenodd" d="M456 12C456 5.37258 450.627 0 444 0H12C5.37258 0 0 5.37258 0 12V78C0 84.6274 5.37259 90 12 90H153.5C158.194 90 162 86.1944 162 81.5C162 76.8056 165.806 73 170.5 73H286.5C291.194 73 295 76.8056 295 81.5C295 86.1944 298.806 90 303.5 90H444C450.627 90 456 84.6274 456 78V12Z"/>
</mask>
<path fill-rule="evenodd" clip-rule="evenodd" d="M456 12C456 5.37258 450.627 0 444 0H12C5.37258 0 0 5.37258 0 12V78C0 84.6274 5.37259 90 12 90H153.5C158.194 90 162 86.1944 162 81.5C162 76.8056 165.806 73 170.5 73H286.5C291.194 73 295 76.8056 295 81.5C295 86.1944 298.806 90 303.5 90H444C450.627 90 456 84.6274 456 78V12Z" fill="white"/>
<path d="M12 1H444V-1H12V1ZM1 78V12H-1V78H1ZM153.5 89H12V91H153.5V89ZM170.5 74H286.5V72H170.5V74ZM444 89H303.5V91H444V89ZM455 12V78H457V12H455ZM444 91C451.18 91 457 85.1797 457 78H455C455 84.0751 450.075 89 444 89V91ZM294 81.5C294 86.7467 298.253 91 303.5 91V89C299.358 89 296 85.6421 296 81.5H294ZM286.5 74C290.642 74 294 77.3579 294 81.5H296C296 76.2533 291.747 72 286.5 72V74ZM163 81.5C163 77.3579 166.358 74 170.5 74V72C165.253 72 161 76.2533 161 81.5H163ZM153.5 91C158.747 91 163 86.7467 163 81.5H161C161 85.6421 157.642 89 153.5 89V91ZM-1 78C-1 85.1797 4.8203 91 12 91V89C5.92487 89 1 84.0751 1 78H-1ZM444 1C450.075 1 455 5.92487 455 12H457C457 4.8203 451.18 -1 444 -1V1ZM12 -1C4.8203 -1 -1 4.8203 -1 12H1C1 5.92487 5.92487 1 12 1V-1Z" fill="black" fill-opacity="0.12" mask="url(#path-1-inside-1_1_702)"/>
</svg>
