<svg width="456" height="90" viewBox="0 0 456 90" fill="none" xmlns="http://www.w3.org/2000/svg">
<mask id="path-1-inside-1_1_689" fill="white">
<path fill-rule="evenodd" clip-rule="evenodd" d="M162 8.5C162 3.80558 158.194 0 153.5 0H12C5.37258 0 0 5.37258 0 12V78C0 84.6274 5.37259 90 12 90H444C450.627 90 456 84.6274 456 78V12C456 5.37258 450.627 0 444 0H303.5C298.806 0 295 3.80558 295 8.5C295 13.1944 291.194 17 286.5 17H170.5C165.806 17 162 13.1944 162 8.5Z"/>
</mask>
<path fill-rule="evenodd" clip-rule="evenodd" d="M162 8.5C162 3.80558 158.194 0 153.5 0H12C5.37258 0 0 5.37258 0 12V78C0 84.6274 5.37259 90 12 90H444C450.627 90 456 84.6274 456 78V12C456 5.37258 450.627 0 444 0H303.5C298.806 0 295 3.80558 295 8.5C295 13.1944 291.194 17 286.5 17H170.5C165.806 17 162 13.1944 162 8.5Z" fill="white"/>
<path d="M12 1H153.5V-1H12V1ZM1 12C1 5.92487 5.92487 1 12 1V-1C4.8203 -1 -1 4.8203 -1 12H1ZM1 78V12H-1V78H1ZM12 89C5.92488 89 1 84.0751 1 78H-1C-1 85.1797 4.82031 91 12 91V89ZM444 89H12V91H444V89ZM455 78C455 84.0751 450.075 89 444 89V91C451.18 91 457 85.1797 457 78H455ZM455 12V78H457V12H455ZM444 1C450.075 1 455 5.92487 455 12H457C457 4.8203 451.18 -1 444 -1V1ZM303.5 1H444V-1H303.5V1ZM286.5 16H170.5V18H286.5V16ZM294 8.5C294 12.6421 290.642 16 286.5 16V18C291.747 18 296 13.7467 296 8.5H294ZM303.5 -1C298.253 -1 294 3.25329 294 8.5H296C296 4.35786 299.358 1 303.5 1V-1ZM170.5 16C166.358 16 163 12.6421 163 8.5H161C161 13.7467 165.253 18 170.5 18V16ZM153.5 1C157.642 1 161 4.35786 161 8.5H163C163 3.25329 158.747 -1 153.5 -1V1Z" fill="black" fill-opacity="0.12" mask="url(#path-1-inside-1_1_689)"/>
</svg>
