<svg width="24" height="24" viewBox="0 0 24 24" fill="none" xmlns="http://www.w3.org/2000/svg">
<mask id="mask0_40_553" style="mask-type:alpha" maskUnits="userSpaceOnUse" x="0" y="0" width="24" height="24">
<rect width="24" height="24" fill="#D9D9D9"/>
</mask>
<g mask="url(#mask0_40_553)">
<path d="M16.65 13L11 7.34995L16.65 1.69995L22.3 7.34995L16.65 13ZM3 11V2.99995H11V11H3ZM13 21V13H21V21H13ZM3 21V13H11V21H3ZM5 8.99995H9V4.99995H5V8.99995ZM16.675 10.2L19.5 7.37495L16.675 4.54995L13.85 7.37495L16.675 10.2ZM15 19H19V15H15V19ZM5 19H9V15H5V19Z" fill="#1C1B1F"/>
</g>
</svg>
